<?xml version="1.0" encoding="UTF-8"?>
<!DOCTYPE svg PUBLIC "-//W3C//DTD SVG 1.1//EN" "http://www.w3.org/Graphics/SVG/1.1/DTD/svg11.dtd">
<svg version="1.1" xmlns="http://www.w3.org/2000/svg" xmlns:xlink="http://www.w3.org/1999/xlink" x="0" y="0" width="128" height="128" viewBox="0, 0, 128, 128">
  <g id="Background">
    <rect x="0" y="0" width="128" height="128" fill="#000000" fill-opacity="0"/>
  </g>
  <defs>
    <linearGradient id="Gradient_1" gradientUnits="userSpaceOnUse" x1="64" y1="115.333" x2="64" y2="12.667">
      <stop offset="0" stop-color="#333333"/>
      <stop offset="1" stop-color="#666666"/>
    </linearGradient>
    <linearGradient id="Gradient_2" gradientUnits="userSpaceOnUse" x1="46.366" y1="92.478" x2="46.366" y2="35.522">
      <stop offset="0" stop-color="#BFC127"/>
      <stop offset="1" stop-color="#FEFF00"/>
    </linearGradient>
    <linearGradient id="Gradient_3" gradientUnits="userSpaceOnUse" x1="66.333" y1="92.478" x2="66.333" y2="35.522">
      <stop offset="0" stop-color="#BFC127"/>
      <stop offset="1" stop-color="#FEFF00"/>
    </linearGradient>
    <linearGradient id="Gradient_4" gradientUnits="userSpaceOnUse" x1="76.049" y1="44.734" x2="76.049" y2="35.522">
      <stop offset="0" stop-color="#9D0404"/>
      <stop offset="1" stop-color="#BE0000"/>
    </linearGradient>
  </defs>
  <g id="Background"/>
  <g id="Layer_2">
    <path d="M17.505,12.667 L110.495,12.667 C113.209,12.667 115.41,14.908 115.41,17.673 L115.41,110.327 C115.41,113.092 113.209,115.333 110.495,115.333 L17.505,115.333 C14.791,115.333 12.59,113.092 12.59,110.327 L12.59,17.673 C12.59,14.908 14.791,12.667 17.505,12.667 z" fill="url(#Gradient_1)"/>
  </g>
  <g id="Layer_3">
    <path d="M45.448,35.522 L47.284,35.522 C47.538,35.522 47.743,35.729 47.743,35.984 L47.743,92.016 C47.743,92.271 47.538,92.478 47.284,92.478 L45.448,92.478 C45.195,92.478 44.989,92.271 44.989,92.016 L44.989,35.984 C44.989,35.729 45.195,35.522 45.448,35.522 z" fill="url(#Gradient_2)"/>
    <path d="M50.115,35.522 L82.552,35.522 C82.805,35.522 83.011,35.728 83.011,35.981 L83.011,92.019 C83.011,92.272 82.805,92.478 82.552,92.478 L50.115,92.478 C49.861,92.478 49.656,92.272 49.656,92.019 L49.656,35.981 C49.656,35.728 49.861,35.522 50.115,35.522 z" fill="url(#Gradient_3)"/>
    <g>
      <path d="M73.18,35.522 L78.918,35.522 L78.918,42.694 L78.918,42.694 L78.918,44.734 L77.325,43.695 L76.049,42.863 L74.774,43.695 L73.18,44.734 L73.18,35.522 z" fill="url(#Gradient_4)"/>
    </g>
  </g>
</svg>
